<?xml version="1.0" encoding="UTF-8" standalone="no"?>
<!-- Created with Inkscape (http://www.inkscape.org/) -->

<svg
   xmlns:dc="http://purl.org/dc/elements/1.1/"
   xmlns:cc="http://creativecommons.org/ns#"
   xmlns:rdf="http://www.w3.org/1999/02/22-rdf-syntax-ns#"
   xmlns:svg="http://www.w3.org/2000/svg"
   xmlns="http://www.w3.org/2000/svg"
   xmlns:sodipodi="http://sodipodi.sourceforge.net/DTD/sodipodi-0.dtd"
   xmlns:inkscape="http://www.inkscape.org/namespaces/inkscape"
   id="svg2"
   version="1.1"
   inkscape:version="0.48.3.1 r9886"
   width="500"
   height="310"
   xml:space="preserve"
   sodipodi:docname="LSP--septembre - the end-couleur.svg"><metadata
     id="metadata8"><rdf:RDF><cc:Work
         rdf:about=""><dc:format>image/svg+xml</dc:format><dc:type
           rdf:resource="http://purl.org/dc/dcmitype/StillImage" /><dc:title></dc:title></cc:Work></rdf:RDF></metadata><defs
     id="defs6"><clipPath
       clipPathUnits="userSpaceOnUse"
       id="clipPath16"><path
         d="m 0,992.126 1723.464,0 L 1723.464,0 0,0 0,992.126 z"
         id="path18"
         inkscape:connector-curvature="0" /></clipPath></defs><sodipodi:namedview
     pagecolor="#ffffff"
     bordercolor="#666666"
     borderopacity="1"
     objecttolerance="10"
     gridtolerance="10"
     guidetolerance="10"
     inkscape:pageopacity="0"
     inkscape:pageshadow="2"
     inkscape:window-width="1280"
     inkscape:window-height="938"
     id="namedview4"
     showgrid="false"
     inkscape:zoom="1.7297043"
     inkscape:cx="259.17591"
     inkscape:cy="159.84709"
     inkscape:window-x="0"
     inkscape:window-y="31"
     inkscape:window-maximized="1"
     inkscape:current-layer="g10" /><g
     id="g10"
     inkscape:groupmode="layer"
     inkscape:label="LSP--septembre - the end-couleur"
     transform="matrix(1.25,0,0,-1.25,0,310.00003)"><g
       id="g12"
       transform="matrix(0.24643311,0,0,0.24643311,-14.847232,5.5359401)"><g
         id="g14"
         clip-path="url(#clipPath16)"><g
           id="g20"
           transform="translate(873.8599,574.0859)"><path
             d="m 0,0 c -15.786,-13.493 -34.742,-20.626 -54.821,-20.626 -35.201,0 -69.983,22.128 -84.582,53.811 -11.48,24.913 -9.119,51.301 6.426,75.592 21.91,28.544 56.35,46.983 95.026,46.983 0.787,0 1.566,-0.014 2.347,-0.03 l 0.01,0 c 2.433,-0.043 4.723,1.367 5.74,3.651 0.002,0.002 0.002,0.006 0.004,0.009 0.038,0.081 0.066,0.166 0.097,0.249 0.046,0.112 0.091,0.225 0.131,0.341 0.002,0.006 0.004,0.011 0.008,0.02 l 23.956,73.996 c 1.021,3.159 -0.637,6.558 -3.756,7.696 l -21.238,7.755 4.482,12.853 114.878,-40.87 -4.229,-11.617 -19.027,7.704 c -1.524,0.619 -3.232,0.601 -4.742,-0.045 -1.511,-0.646 -2.701,-1.869 -3.308,-3.398 L 28.575,141.416 c -0.017,-0.049 -0.029,-0.098 -0.047,-0.146 -0.046,-0.124 -0.091,-0.249 -0.127,-0.373 -0.019,-0.077 -0.042,-0.157 -0.065,-0.235 -0.025,-0.115 -0.055,-0.23 -0.077,-0.346 -0.018,-0.094 -0.031,-0.188 -0.045,-0.281 -0.017,-0.1 -0.03,-0.2 -0.038,-0.301 -0.014,-0.107 -0.018,-0.214 -0.022,-0.32 -0.004,-0.089 -0.009,-0.178 -0.009,-0.267 0,-0.114 0.005,-0.227 0.011,-0.341 0.004,-0.083 0.008,-0.167 0.02,-0.251 0.012,-0.112 0.024,-0.223 0.04,-0.337 0.013,-0.086 0.025,-0.171 0.043,-0.255 0.022,-0.106 0.046,-0.21 0.071,-0.314 0.022,-0.091 0.052,-0.182 0.075,-0.273 0.028,-0.094 0.058,-0.187 0.091,-0.279 0.032,-0.098 0.071,-0.195 0.109,-0.291 0.036,-0.083 0.071,-0.164 0.109,-0.245 0.045,-0.102 0.095,-0.201 0.146,-0.3 0.039,-0.076 0.083,-0.15 0.124,-0.225 0.056,-0.096 0.116,-0.191 0.176,-0.286 0.052,-0.075 0.104,-0.148 0.154,-0.221 0.064,-0.085 0.127,-0.17 0.193,-0.253 0.064,-0.08 0.132,-0.158 0.199,-0.235 0.062,-0.07 0.127,-0.138 0.19,-0.207 0.083,-0.084 0.17,-0.166 0.261,-0.246 0.057,-0.054 0.114,-0.109 0.18,-0.161 0.099,-0.084 0.203,-0.164 0.309,-0.242 0.041,-0.031 0.083,-0.065 0.122,-0.096 C 52.813,118.613 68.729,96.362 76.483,71.25 77.96,64.375 77.73,57.432 72.994,52.921 70.598,50.638 67.575,49.479 64.009,49.479 43.833,49.479 11.738,86.135 11.418,86.505 L 11.03,86.2 C 11.115,86.08 19.58,74.097 22.428,57.55 25.055,42.288 23.297,19.917 0,0 m 142.851,-57.814 c -3.789,2.895 -9.212,2.169 -12.109,-1.623 L 104.323,-94.04 61.36,-51.08 c 21.198,24.103 32.785,54.705 32.785,87.092 0,21.576 -5.322,42.986 -15.384,61.915 -8.978,16.883 -21.7,31.782 -36.96,43.366 l 24.78,62.456 19.193,-7.773 c 1.55,-0.629 3.292,-0.599 4.824,0.081 1.528,0.682 2.718,1.954 3.29,3.527 l 8.54,23.467 c 0.561,1.544 0.484,3.249 -0.216,4.736 -0.701,1.489 -1.963,2.636 -3.515,3.187 l -126.582,45.033 c -1.546,0.55 -3.25,0.46 -4.73,-0.25 -1.485,-0.71 -2.621,-1.98 -3.161,-3.532 l -8.527,-24.454 c -1.112,-3.184 0.54,-6.67 3.709,-7.826 l 21.361,-7.805 -20.736,-64.065 c -34.522,-0.514 -66.901,-14.192 -91.372,-38.662 -24.949,-24.949 -38.686,-58.119 -38.686,-93.401 0,-35.282 13.737,-68.451 38.686,-93.399 6.579,-6.579 13.732,-12.369 21.34,-17.341 l -48.603,-71.119 72.544,0 c 4.772,0 8.637,3.868 8.637,8.638 0,4.771 -3.865,8.637 -8.637,8.637 l -39.815,0 30.979,45.335 c 17.556,-8.402 36.912,-12.838 56.945,-12.838 32.393,0 62.996,11.584 87.096,32.781 l 56.922,-56.923 38.407,50.295 c 2.894,3.792 2.169,9.212 -1.623,12.108"
             style="fill:#399bcd;fill-opacity:1;fill-rule:nonzero;stroke:none"
             id="path22"
             inkscape:connector-curvature="0" /></g><g
           id="g24"
           transform="translate(632.4478,271.3916)"><path
             d="m 0,0 c -17.651,0 -32.011,-14.356 -32.011,-32.003 0,-17.655 14.36,-32.018 32.011,-32.018 13.831,0 26.164,9.099 30.42,22.03 L 8.463,-0.487 C 7.097,-0.264 4.523,0 0,0 m 92.486,-82.021 -35.467,0 c -3.335,0 -6.396,1.843 -7.956,4.791 l -8.495,16.057 C 31.349,-73.886 16.345,-82.021 0,-82.021 c -27.576,0 -50.011,22.438 -50.011,50.018 C -50.011,-4.432 -27.576,18 0,18 c 11.409,0 19.212,-1.209 22.855,-7.23 0.089,-0.148 0.174,-0.298 0.255,-0.451 l 39.329,-74.34 21.047,0 0,151.573 c 0,4.97 4.03,9 9,9 4.971,0 9,-4.03 9,-9 l 0,-160.573 c 0,-4.971 -4.029,-9 -9,-9"
             style="fill:#ec6b29;fill-opacity:1;fill-rule:nonzero;stroke:none"
             id="path26"
             inkscape:connector-curvature="0" /></g><g
           id="g28"
           transform="translate(765.3101,221.3125)"><path
             d="m 0,0 c -4.971,0 -9,4.029 -9,9 0,4.971 4.029,9 9,9 11.57,0 22.079,6.198 27.727,16.071 C 22.05,43.894 11.502,50.079 0,50.079 c -15.541,0 -28.794,-11.08 -31.514,-26.345 -0.871,-4.895 -5.544,-8.158 -10.438,-7.282 -4.894,0.871 -8.154,5.545 -7.282,10.439 4.251,23.866 24.957,41.188 49.234,41.188 19.742,0 37.685,-11.662 45.71,-29.709 0.111,-0.249 0.211,-0.504 0.298,-0.763 l 0.237,-0.698 c 0.71,-2.09 0.627,-4.368 -0.232,-6.401 C 38.173,11.975 20.112,0 0,0"
             style="fill:#ec6b29;fill-opacity:1;fill-rule:nonzero;stroke:none"
             id="path30"
             inkscape:connector-curvature="0" /></g><g
           id="g32"
           transform="translate(892.104,189.3701)"><path
             d="m 0,0 -69.877,0 c -3.327,0 -6.384,1.836 -7.946,4.774 l -24.987,46.978 c -2.334,4.389 -0.668,9.838 3.72,12.172 4.39,2.335 9.838,0.67 12.173,-3.719 L -64.47,18 0,18 C 4.971,18 9,13.971 9,9 9,4.029 4.971,0 0,0"
             style="fill:#ec6b29;fill-opacity:1;fill-rule:nonzero;stroke:none"
             id="path34"
             inkscape:connector-curvature="0" /></g><g
           id="g36"
           transform="translate(886.8081,269.4082)"><path
             d="m 0,0 c -17.104,0 -31.019,-13.913 -31.019,-31.014 0,-6.94 2.29,-13.356 6.155,-18.529 L 1.476,-0.034 C 0.985,-0.011 0.493,0 0,0 m 84.087,-80.038 -84.087,0 c -9.791,0 -18.923,2.887 -26.586,7.852 -0.033,0.018 -0.067,0.036 -0.102,0.054 -0.626,0.334 -1.198,0.731 -1.709,1.179 -12.473,8.896 -20.622,23.484 -20.622,39.939 C -49.019,-3.988 -27.029,18 0,18 c 6.123,0 12.1,-1.117 17.766,-3.32 0.1,-0.039 0.2,-0.08 0.298,-0.123 4.528,-1.95 6.802,-6.897 5.29,-11.508 C 23.193,2.558 22.991,2.083 22.748,1.626 l -32.953,-61.939 c 3.197,-1.118 6.632,-1.725 10.205,-1.725 l 84.087,0 c 4.971,0 9,-4.029 9,-9 0,-4.971 -4.029,-9 -9,-9"
             style="fill:#ec6b29;fill-opacity:1;fill-rule:nonzero;stroke:none"
             id="path38"
             inkscape:connector-curvature="0" /></g><g
           id="g40"
           transform="translate(468.6528,189.3701)"><path
             d="m 0,0 c -4.971,0 -9,4.029 -9,9 l 0,151.604 -35.188,0.122 c -4.356,0.015 -8.077,3.149 -8.832,7.44 l -0.651,3.7 c -4.35,22.293 -23.165,30.239 -39.336,30.239 -22.421,0 -40.661,-18.239 -40.661,-40.659 0,-24.189 15.2,-38.63 40.661,-38.63 l 0.619,-0.005 c 34.355,0.942 56.627,-21.4 58.035,-58.314 C -33.627,45.441 -39.441,28.492 -50.724,16.771 -61.286,5.799 -75.907,0 -93.007,0 c -15.175,0 -28.313,5.129 -37.994,14.834 -11.395,11.423 -17.644,28.946 -17.595,49.341 0.012,4.963 4.039,8.979 8.999,8.979 l 0.022,0 c 4.971,-0.012 8.991,-4.051 8.979,-9.022 -0.037,-15.579 4.344,-28.572 12.338,-36.585 6.32,-6.335 14.815,-9.547 25.251,-9.547 12.09,0 22.228,3.892 29.315,11.254 7.859,8.163 11.89,20.436 11.352,34.557 -0.6,15.73 -6.532,41.97 -39.697,41.003 -0.115,-0.003 -0.232,-0.005 -0.344,-0.003 l -0.707,0.006 c -35.006,-10e-4 -58.58,22.757 -58.58,56.629 0,32.345 26.315,58.659 58.661,58.659 28.093,0 49.796,-16.127 56.241,-41.405 L 0.031,178.573 C 4.989,178.556 9,174.532 9,169.573 L 9,9 C 9,4.029 4.971,0 0,0"
             style="fill:#ec6b29;fill-opacity:1;fill-rule:nonzero;stroke:none"
             id="path42"
             inkscape:connector-curvature="0" /></g><g
           id="g44"
           transform="translate(566.8428,189.3701)"><path
             d="m 0,0 c -3.332,0 -6.392,1.841 -7.952,4.786 l -40.672,76.746 c -1.368,0.224 -3.949,0.489 -8.49,0.489 -17.687,0 -32.076,-14.388 -32.076,-32.073 0,-4.97 -4.029,-9 -9,-9 -4.971,0 -9,4.03 -9,9 0,27.611 22.464,50.073 50.076,50.073 11.421,0 19.232,-1.208 22.876,-7.226 0.09,-0.147 0.175,-0.296 0.255,-0.448 L -0.048,28.312 16.621,60.153 c 2.306,4.403 7.744,6.105 12.148,3.799 4.403,-2.306 6.104,-7.744 3.799,-12.148 L 7.974,4.826 C 6.424,1.866 3.363,0.008 0.022,0 L 0,0 z"
             style="fill:#ec6b29;fill-opacity:1;fill-rule:nonzero;stroke:none"
             id="path46"
             inkscape:connector-curvature="0" /></g><g
           id="g48"
           transform="translate(1184.9946,271.3916)"><path
             d="m 0,0 c -17.65,0 -32.01,-14.358 -32.01,-32.006 0,-7.288 2.448,-14.016 6.564,-19.403 L 1.874,-0.054 C 1.252,-0.018 0.627,0 0,0 m 40.501,-82.021 -40.501,0 c -9.991,0 -19.308,2.945 -27.126,8.013 -0.039,0.02 -0.077,0.04 -0.115,0.06 -0.632,0.336 -1.207,0.737 -1.722,1.189 -12.731,9.076 -21.047,23.961 -21.047,40.753 C -50.01,-4.433 -27.575,18 0,18 6.237,18 12.333,16.861 18.118,14.615 18.213,14.579 18.307,14.54 18.4,14.5 22.938,12.559 25.228,7.613 23.729,2.996 23.567,2.497 23.361,2.012 23.114,1.548 l -33.888,-63.704 c 3.368,-1.207 6.996,-1.865 10.774,-1.865 l 40.501,0 c 4.971,0 9,-4.03 9,-9 0,-4.971 -4.029,-9 -9,-9"
             style="fill:#ec6b29;fill-opacity:1;fill-rule:nonzero;stroke:none"
             id="path50"
             inkscape:connector-curvature="0" /></g><g
           id="g52"
           transform="translate(1087.0835,271.3916)"><path
             d="m 0,0 c -17.65,0 -32.01,-14.358 -32.01,-32.006 0,-7.289 2.448,-14.017 6.565,-19.404 L 1.874,-0.054 C 1.252,-0.018 0.627,0 0,0 M 157.987,-82.021 0,-82.021 c -9.994,0 -19.313,2.947 -27.134,8.018 -0.035,0.018 -0.07,0.037 -0.105,0.055 -0.628,0.334 -1.2,0.733 -1.714,1.182 -12.735,9.075 -21.057,23.964 -21.057,40.76 C -50.01,-4.433 -27.575,18 0,18 6.24,18 12.337,16.861 18.12,14.615 18.215,14.578 18.31,14.54 18.402,14.5 22.967,12.547 25.249,7.579 23.712,2.942 23.552,2.461 23.353,1.995 23.114,1.548 l -33.886,-63.704 c 3.367,-1.208 6.994,-1.865 10.772,-1.865 l 157.987,0 c 4.971,0 9,-4.03 9,-9 0,-4.971 -4.029,-9 -9,-9"
             style="fill:#ec6b29;fill-opacity:1;fill-rule:nonzero;stroke:none"
             id="path54"
             inkscape:connector-curvature="0" /></g><g
           id="g56"
           transform="translate(1246.2407,189.3701)"><path
             d="m 0,0 c -4.971,0 -9,4.029 -9,9 l 0,82.021 c 0,4.97 4.029,9 9,9 4.971,0 9,-4.03 9,-9 L 9,9 C 9,4.029 4.971,0 0,0"
             style="fill:#ec6b29;fill-opacity:1;fill-rule:nonzero;stroke:none"
             id="path58"
             inkscape:connector-curvature="0" /></g><g
           id="g60"
           transform="translate(1286.6128,221.3105)"><path
             d="m 0,0 c -4.971,0 -9,4.029 -9,9 0,4.971 4.029,9 9,9 11.579,0 22.092,6.198 27.733,16.071 C 22.06,43.896 11.509,50.08 0,50.08 -15.539,50.08 -28.791,39 -31.512,23.735 -32.383,18.841 -37.058,15.578 -41.951,16.454 -46.845,17.326 -50.104,22 -49.232,26.893 -44.979,50.758 -24.274,68.08 0,68.08 c 19.751,0 37.695,-11.662 45.716,-29.711 0.11,-0.249 0.21,-0.502 0.297,-0.761 L 46.25,36.91 C 46.96,34.821 46.877,32.545 46.02,30.513 38.188,11.977 20.125,0 0,0"
             style="fill:#ec6b29;fill-opacity:1;fill-rule:nonzero;stroke:none"
             id="path62"
             inkscape:connector-curvature="0" /></g><g
           id="g64"
           transform="translate(1343.5483,189.3682)"><path
             d="m 0,0 c -3.221,0 -6.336,1.734 -7.954,4.775 l -24.987,46.979 c -2.334,4.389 -0.669,9.838 3.719,12.172 4.389,2.335 9.838,0.669 12.173,-3.719 L 7.938,13.229 C 10.272,8.84 8.607,3.39 4.219,1.056 2.872,0.34 1.426,0 0,0"
             style="fill:#ec6b29;fill-opacity:1;fill-rule:nonzero;stroke:none"
             id="path66"
             inkscape:connector-curvature="0" /></g><g
           id="g68"
           transform="translate(1459.8423,189.3701)"><path
             d="m 0,0 -115.192,0 c -4.971,0 -9,4.029 -9,9 0,4.971 4.029,9 9,9 l 82.06,0 -69.565,40.804 c -3.951,2.318 -5.532,7.234 -3.67,11.419 8.047,18.102 26.044,29.798 45.849,29.798 20.199,0 38.335,-12.021 46.205,-30.625 1.448,-3.419 2.514,-7.014 3.167,-10.679 0.873,-4.894 -2.387,-9.568 -7.281,-10.44 -4.894,-0.872 -9.566,2.388 -10.439,7.282 -0.417,2.342 -1.098,4.637 -2.024,6.821 -5.048,11.933 -16.676,19.641 -29.628,19.641 -9.987,0 -19.257,-4.639 -25.272,-12.266 L 4.554,16.763 C 8.058,14.708 9.75,10.561 8.686,6.641 7.62,2.721 4.062,0 0,0"
             style="fill:#ec6b29;fill-opacity:1;fill-rule:nonzero;stroke:none"
             id="path70"
             inkscape:connector-curvature="0" /></g><g
           id="g72"
           transform="translate(1021.6567,391.4746)"><path
             d="m 0,0 c -22.443,0 -40.702,-18.262 -40.702,-40.708 0,-22.444 18.259,-40.704 40.702,-40.704 22.447,0 40.709,18.26 40.709,40.704 C 40.709,-18.262 22.447,0 0,0 m 0,-99.412 c -32.368,0 -58.702,26.335 -58.702,58.704 C -58.702,-8.336 -32.368,18 0,18 32.372,18 58.709,-8.336 58.709,-40.708 58.709,-73.077 32.372,-99.412 0,-99.412"
             style="fill:#ec6b29;fill-opacity:1;fill-rule:nonzero;stroke:none"
             id="path74"
             inkscape:connector-curvature="0" /></g><g
           id="g76"
           transform="translate(971.9546,189.3701)"><path
             d="m 0,0 c -4.971,0 -9,4.029 -9,9 l 0,152.396 c 0,4.971 4.029,9 9,9 4.971,0 9,-4.029 9,-9 L 9,9 C 9,4.029 4.971,0 0,0"
             style="fill:#ec6b29;fill-opacity:1;fill-rule:nonzero;stroke:none"
             id="path78"
             inkscape:connector-curvature="0" /></g></g></g></g></svg>